<?xml version="1.0" encoding="UTF-8" standalone="no"?>
<!-- Creator: CorelDRAW X7 -->

<svg
   xml:space="preserve"
   width="112.529mm"
   height="26.5044mm"
   version="1.1"
   style="shape-rendering:geometricPrecision; text-rendering:geometricPrecision; image-rendering:optimizeQuality; fill-rule:evenodd; clip-rule:evenodd"
   viewBox="0 0 11253 2650"
   id="svg12"
   sodipodi:docname="RapidFire-logo-for-dark-theme.svg"
   inkscape:version="1.4.2 (f4327f4, 2025-05-13)"
   xmlns:inkscape="http://www.inkscape.org/namespaces/inkscape"
   xmlns:sodipodi="http://sodipodi.sourceforge.net/DTD/sodipodi-0.dtd"
   xmlns="http://www.w3.org/2000/svg"
   xmlns:svg="http://www.w3.org/2000/svg"><sodipodi:namedview
   id="namedview12"
   pagecolor="#ffffff"
   bordercolor="#000000"
   borderopacity="0.25"
   inkscape:showpageshadow="2"
   inkscape:pageopacity="0.0"
   inkscape:pagecheckerboard="true"
   inkscape:deskcolor="#d1d1d1"
   inkscape:document-units="mm"
   inkscape:zoom="2.7349471"
   inkscape:cx="65.083526"
   inkscape:cy="112.2508"
   inkscape:window-width="2307"
   inkscape:window-height="1341"
   inkscape:window-x="-8"
   inkscape:window-y="0"
   inkscape:window-maximized="0"
   inkscape:current-layer="rapid_x0020_meh_x0020_won.cdr" />
 <defs
   id="defs1">
  <style
   type="text/css"
   id="style1">
   <![CDATA[
    .fil2 {fill:#007EFC}
    .fil1 {fill:#007EFC;fill-rule:nonzero}
    .fil0 {fill:#0B1727;fill-rule:nonzero}
   ]]>
  </style>
 </defs>
 <g
   id="Layer_x0020_1"
   inkscape:label="Layer 1">
  <metadata
   id="CorelCorpID_0Corel-Layer" />
  <g
   id="rapid_x0020_meh_x0020_won.cdr"
   style="opacity:1">
   <g
   id="g2"
   style="fill:#ffffff;fill-opacity:1">
    <path
   class="fil0"
   d="M3414 1848l234 0 -255 -361c138,-19 212,-112 212,-269l0 -143c0,-177 -94,-273 -269,-273l-369 0 -197 0 0 1046 197 0 0 -357 206 0 241 357zm-447 -861l354 0c68,0 87,16 87,104l0 111c0,88 -19,104 -87,104l-354 0 0 -319zm1249 99l-411 0 0 170 367 0c51,0 65,14 65,84l0 51 -282 0c-143,0 -217,75 -217,236 0,154 62,236 211,236l114 0c91,0 153,-33 185,-97l7 82 172 0 0 -544c0,-137 -70,-218 -211,-218l0 0zm-73 605l-151 0c-46,0 -64,-12 -65,-74 1,-60 17,-77 65,-77l245 0 0 53c0,64 -32,98 -94,98l0 0zm966 -605l-111 0c-91,0 -155,32 -189,92l-7 -77 -169 0 0 1016 188 0 0 -323c37,45 95,69 174,69l92 0c156,0 240,-84 240,-239l0 -321c0,-138 -74,-217 -218,-217l0 0zm31 522c0,69 -16,83 -73,83l-147 0c-58,0 -92,-27 -99,-79l0 -258c1,-62 38,-96 102,-96l144 0c57,0 73,14 73,83l0 267zm334 -643l200 0 0 -200 -200 0 0 200zm6 883l188 0 0 -747 -188 0 0 747zm849 -1046l0 353c-37,-45 -95,-69 -174,-69l-92 0c-156,0 -241,84 -241,239l0 321c0,141 77,217 219,217l107 0c94,0 160,-34 193,-97l7 82 169 0 0 -1046 -188 0zm-105 889l-141 0c-57,0 -73,-14 -73,-83l0 -267c0,-69 16,-83 73,-83l147 0c58,0 92,28 99,79l0 258c-1,62 -40,96 -105,96l0 0zm1267 -704l0 -185 -550 0 -197 0 0 1046 197 0 0 -416 491 0 0 -184 -491 0 0 -261 550 0zm193 -22l200 0 0 -200 -200 0 0 200zm6 883l188 0 0 -747 -188 0 0 747zm838 -762l-88 0c-100,0 -169,37 -203,106l-7 -91 -169 0 0 747 187 0 0 -478c0,-73 39,-112 111,-112l169 0 0 -172zm294 476l501 0 0 -237c0,-155 -89,-239 -247,-239l-197 0c-158,0 -243,84 -243,239l0 299c0,155 85,239 243,239l414 0 0 -172 -393 0c-58,0 -78,-15 -78,-85l0 -44zm75 -304l164 0c59,0 75,14 75,83l0 67 -314 0 0 -67c0,-69 17,-83 75,-83z"
   id="path1"
   style="fill:#ffffff;fill-opacity:1" />
    <path
   class="fil1"
   d="M9502 1848l197 0 0 -229 -197 0 0 229zm1177 0l211 0 -361 -1046 -47 0 -149 0 -128 0 -360 1046 210 0 77 -232 470 0 77 232zm-486 -417l147 -444 54 0 147 444 -348 0zm863 417l197 0 0 -1046 -197 0 0 1046z"
   id="path2"
   style="fill:#ffffff;fill-opacity:1" />
   </g>
   <g
   id="g12">
    <path
   class="fil2"
   d="M129 1786c50,-28 113,-11 141,38 29,49 12,112 -37,141 -50,28 -113,11 -141,-38 -29,-49 -12,-112 37,-141z"
   id="path3" />
    <path
   class="fil2"
   d="M2207 1215c39,-22 88,-9 110,30 22,38 9,87 -29,109 -32,18 -70,13 -95,-10l-197 113c14,45 -5,95 -47,119 -42,24 -95,16 -127,-19l-145 84c22,60 -2,129 -59,162 -57,32 -128,19 -169,-30l-95 55c29,73 1,158 -69,199 -77,44 -176,18 -220,-59 -45,-78 -19,-176 59,-221 70,-40 158,-22 207,40l94 -55c-21,-60 2,-128 59,-161 57,-33 128,-19 169,29l146 -84c-14,-44 5,-94 47,-119 42,-24 94,-15 127,19l196 -113c-8,-34 7,-70 38,-88z"
   id="path4" />
    <path
   class="fil2"
   d="M1766 451c39,-22 52,-71 29,-110 -22,-38 -71,-51 -109,-29 -32,18 -46,54 -39,87l-196 114c-32,-34 -84,-43 -127,-19 -42,25 -60,74 -47,119l-145 84c-41,-48 -112,-62 -169,-29 -57,33 -81,101 -59,161l-95 54c-49,-61 -137,-80 -207,-39 -77,44 -103,143 -59,220 45,78 143,104 221,59 70,-40 98,-125 69,-199l94 -54c41,48 113,62 170,29 56,-33 80,-101 59,-161l145 -84c32,34 84,43 127,19 42,-25 60,-74 47,-119l196 -113c25,23 64,28 95,10z"
   id="path5" />
    <path
   class="fil2"
   d="M1245 150c38,-22 51,-71 29,-110 -22,-38 -71,-51 -110,-29 -31,18 -46,54 -38,87l-196 114c-32,-34 -85,-43 -127,-19 -42,25 -61,74 -47,119l-146 84c-41,-49 -112,-62 -169,-29 -57,32 -80,101 -59,161l-94 54c-49,-61 -137,-80 -207,-39 -77,44 -104,143 -59,220 44,77 143,104 220,59 70,-40 98,-126 69,-199l95 -54c41,48 112,62 169,29 57,-33 81,-101 59,-161l145 -84c32,34 85,43 127,19 42,-25 61,-74 47,-119l197 -114c25,24 63,29 95,11z"
   id="path6" />
    <path
   class="fil2"
   d="M2287 752c39,-22 52,-71 30,-110 -22,-38 -71,-51 -110,-29 -31,18 -46,54 -38,87l-197 114c-32,-34 -84,-43 -126,-19 -42,25 -61,74 -47,119l-146 84c-41,-48 -112,-62 -169,-29 -57,33 -80,101 -59,161l-94 54c-49,-61 -137,-80 -207,-39 -78,45 -104,143 -59,220 44,78 143,104 220,59 70,-40 98,-125 69,-199l95 -54c41,48 112,62 169,29 57,-33 81,-101 59,-161l145 -84c32,34 85,43 127,19 42,-24 61,-74 47,-119l197 -113c25,23 63,28 94,10z"
   id="path7" />
    <path
   class="fil2"
   d="M2207 1817c39,-22 88,-9 110,30 22,38 9,87 -29,110 -32,18 -70,12 -95,-11l-197 113c14,45 -5,95 -47,119 -42,25 -95,16 -127,-18l-145 84c22,59 -2,128 -59,161 -57,33 -128,19 -169,-30l-95 55c29,73 1,158 -69,199 -77,44 -176,18 -220,-59 -45,-77 -19,-176 59,-221 70,-40 158,-22 207,40l94 -55c-21,-60 2,-128 59,-161 57,-33 128,-19 169,29l146 -83c-14,-45 5,-95 47,-119 42,-25 94,-16 127,18l196 -113c-8,-34 7,-70 38,-88z"
   id="path8" />
    <path
   class="fil2"
   d="M129 1184c50,-28 113,-11 141,38 29,49 12,112 -37,141 -50,28 -113,11 -141,-38 -29,-49 -12,-112 37,-141z"
   id="path9" />
    <path
   class="fil2"
   d="M651 2087c49,-28 112,-11 141,38 28,49 11,112 -38,141 -49,28 -112,12 -141,-38 -28,-49 -11,-112 38,-141z"
   id="path10" />
    <path
   class="fil2"
   d="M460 1596c49,-29 112,-12 141,37 28,50 11,113 -38,141 -50,29 -113,12 -141,-38 -29,-49 -12,-112 38,-140z"
   id="path11" />
    <path
   class="fil2"
   d="M806 1396c49,-29 112,-12 141,37 28,50 11,113 -38,141 -49,29 -112,12 -141,-37 -28,-50 -11,-113 38,-141z"
   id="path12" />
   </g>
  </g>
 </g>
</svg>
